<?xml version="1.0" encoding="UTF-8" standalone="no"?>
<svg
   width="24"
   height="24"
   viewBox="0 0 24 24"
   fill="none"
   stroke="currentColor"
   stroke-width="2"
   stroke-linecap="round"
   stroke-linejoin="round"
   class="lucide lucide-crown"
   version="1.1"
   id="svg2"
   sodipodi:docname="you.svg"
   xml:space="preserve"
   inkscape:version="1.3 (0e150ed6c4, 2023-07-21)"
   xmlns:inkscape="http://www.inkscape.org/namespaces/inkscape"
   xmlns:sodipodi="http://sodipodi.sourceforge.net/DTD/sodipodi-0.dtd"
   xmlns:xlink="http://www.w3.org/1999/xlink"
   xmlns="http://www.w3.org/2000/svg"
   xmlns:svg="http://www.w3.org/2000/svg"><defs
     id="defs2" /><sodipodi:namedview
     id="namedview2"
     pagecolor="#ffffff"
     bordercolor="#000000"
     borderopacity="0.25"
     inkscape:showpageshadow="2"
     inkscape:pageopacity="0.0"
     inkscape:pagecheckerboard="0"
     inkscape:deskcolor="#d1d1d1"
     showgrid="false"
     inkscape:zoom="8"
     inkscape:cx="-26.9375"
     inkscape:cy="4.4375"
     inkscape:window-width="1920"
     inkscape:window-height="1017"
     inkscape:window-x="3832"
     inkscape:window-y="427"
     inkscape:window-maximized="1"
     inkscape:current-layer="svg2" /><g
     id="g3"
     transform="matrix(0.98536618,0,0,1.0271209,1.8547872,-0.20721004)"><path
       d="m 18.224705,2.6198367 c 0.159797,-0.079811 0.344831,0.047945 0.326822,0.2256549 l -0.342228,2.8511991 c -0.03054,0.2837514 0.205537,0.5248125 0.489864,0.5002048 L 21.238686,5.931655 c 0.219573,-0.017281 0.332317,0.2571027 0.164029,0.3991943 l -3.986056,3.5060134 c -0.155316,0.130105 -1.867031,-2.9759309 -2.28272,-2.7589846 v 0 C 14.967878,6.9615002 12.306483,5.9328507 12.373164,5.7413508 L 13.9553,1.1893177 c 0.07324,-0.20771746 0.369769,-0.19951611 0.431415,0.011932 l 0.651477,2.4684719 c 0.07774,0.2745989 0.386814,0.4099388 0.641332,0.2808316 z"
       id="path1"
       style="stroke-width:1.69;stroke-dasharray:none"
       sodipodi:nodetypes="ccccccccccccccc" /><g
       style="fill:none;stroke:currentColor;stroke-width:2;stroke-linecap:round;stroke-linejoin:round"
       id="g2"
       transform="matrix(0.90530779,0,0,0.90530779,1.6774373,3.5457929)"><circle
         cx="12"
         cy="8"
         r="5"
         id="circle1" /><path
         d="M 20,21 A 8,8 0 0 0 4,21"
         id="path1-5" /></g></g><g
     id="g4"
     transform="matrix(0.00134498,0,0,0.00161565,0.01069967,2.9667454)"
     style="fill:#000000;fill-opacity:1;stroke:#000000;stroke-width:2.97287;stroke-dasharray:none;stroke-opacity:1"><path
       id="a"
       fill="#000000"
       d="m 3430.5767,0 c -260,709 -525,1447 -1092,2012 118.3059,-38.9872 296.2552,-75.2633 460.3461,-93.3384 80.0219,-8.8146 -43.4052,-27.7742 21.5006,-26.1352 v 2982 l -421.5596,105.4093 c 36.7177,-3 -10.0955,-115.996 -10.0955,-179.996 -81,-926 -537.1402,-1602.6228 -789.1402,-2407.6228 -18,-110 -350.0514,-531.3169 -104.0514,-457.3169 30,4 465.1473,153.3515 413.1473,89.3515 C 1460.724,1560.3515 699.5767,1211 63.5767,1112 c -56,-14 -89,14 -39,79 844,1299 1550,2832 1544,4651 328,0 863.7532,-193.631 1192.7532,-193.631 l -20.1338,7130.232 c -76.6619,266.093 1170.323,142.821 1170.323,142.821 L 3530.5767,1876 Z"
       style="fill:#000000;fill-opacity:1;stroke:#000000;stroke-width:2.97287;stroke-dasharray:none;stroke-opacity:1"
       sodipodi:nodetypes="ccsccccccccccccccc" /><use
       xlink:href="#a"
       transform="matrix(-1,0,0,1,6861.1533,0)"
       id="use1"
       style="fill:#000000;fill-opacity:1;stroke:#000000;stroke-width:2.97287;stroke-dasharray:none;stroke-opacity:1" /></g></svg>
